<?xml version="1.0" encoding="iso-8859-1"?>
<!-- Generator: Adobe Illustrator 16.0.0, SVG Export Plug-In . SVG Version: 6.00 Build 0)  -->
<!DOCTYPE svg PUBLIC "-//W3C//DTD SVG 1.1//EN" "http://www.w3.org/Graphics/SVG/1.1/DTD/svg11.dtd">
<svg version="1.1" id="Capa_1" xmlns="http://www.w3.org/2000/svg" xmlns:xlink="http://www.w3.org/1999/xlink" x="0px" y="0px"
	 width="46.083px" height="46.083px" viewBox="0 0 46.083 46.083" style="enable-background:new 0 0 46.083 46.083;"
	 xml:space="preserve">
<g>
	<path d="M38.121,25.68c-3.864,0-7.094,2.767-7.813,6.423h-4.345V7.723c0-0.94-0.476-1.83-1.242-2.385
		c-0.762-0.546-1.763-0.691-2.634-0.399L19.57,5.779V1.776c0-0.831-0.681-1.506-1.514-1.506c-0.832,0-1.514,0.675-1.514,1.506v5.007
		l-2.451,0.815c-2.356,0.787-3.942,2.982-3.942,5.467v19.037H3.752c-1.178,0-2.287,0.557-2.996,1.495
		c-0.709,0.94-0.936,2.159-0.612,3.293l1.78,6.215c0.46,1.61,1.933,2.707,3.608,2.707h23.771c1.676,0,3.148-1.095,3.608-2.706
		l0.81-2.831c1.261,0.84,2.774,1.33,4.399,1.33c4.391,0,7.963-3.573,7.963-7.962C46.083,29.251,42.511,25.68,38.121,25.68z
		 M14.188,13.065c0-0.752,0.471-1.417,1.184-1.654l6.555-2.186v22.877h-7.739V13.065z M38.121,37.587
		c-2.181,0-3.945-1.766-3.945-3.943c0-2.18,1.765-3.945,3.945-3.945c2.18,0,3.944,1.766,3.944,3.945
		C42.065,35.822,40.3,37.587,38.121,37.587z"/>
</g>
<g>
</g>
<g>
</g>
<g>
</g>
<g>
</g>
<g>
</g>
<g>
</g>
<g>
</g>
<g>
</g>
<g>
</g>
<g>
</g>
<g>
</g>
<g>
</g>
<g>
</g>
<g>
</g>
<g>
</g>
</svg>
