<svg id="Layer_1" data-name="Layer 1" xmlns="http://www.w3.org/2000/svg" viewBox="0 0 450.25 450.25"><defs><style>.cls-1{fill:#666;stroke:#4d4d4d;}.cls-1,.cls-2{stroke-miterlimit:10;}.cls-2{fill:#999;stroke:gray;}</style></defs><title>moon</title><path class="cls-1" d="M180,303.66c0-106.77,74.5-196.15,174.36-219A224.77,224.77,0,0,0,300,78C175.94,78,75.38,178.61,75.38,302.67S175.94,527.29,300,527.29a225.54,225.54,0,0,0,50.26-5.65C252.49,497.32,180,409,180,303.66Z" transform="translate(-74.88 -77.54)"/><path class="cls-2" d="M524.62,302.67c0-105.3-72.45-193.66-170.22-218C254.54,107.51,180,196.89,180,303.66c0,105.3,72.45,193.66,170.22,218C450.12,498.81,524.62,409.44,524.62,302.67Z" transform="translate(-74.88 -77.54)"/></svg>