<?xml version="1.0" encoding="iso-8859-1"?>
<!-- Generator: Adobe Illustrator 16.0.0, SVG Export Plug-In . SVG Version: 6.00 Build 0)  -->
<!DOCTYPE svg PUBLIC "-//W3C//DTD SVG 1.1//EN" "http://www.w3.org/Graphics/SVG/1.1/DTD/svg11.dtd">
<svg version="1.1" id="Capa_1" xmlns="http://www.w3.org/2000/svg" xmlns:xlink="http://www.w3.org/1999/xlink" x="0px" y="0px"
	 width="571.229px" height="571.229px" viewBox="0 0 571.229 571.229" style="enable-background:new 0 0 571.229 571.229;"
	 xml:space="preserve">
<g>
	<g>
		<path d="M101.696,365.673c28.682-28.682,75.181-28.682,103.86,0c28.681,28.682,28.681,75.179,0,103.859
			c-3.712,3.712-7.724,6.932-11.956,9.682l92.014,92.015l92.015-92.015c-4.229-2.75-8.244-5.97-11.956-9.682
			c-28.682-28.681-28.682-75.178,0-103.859s75.182-28.682,103.859,0c3.712,3.712,6.932,7.727,9.682,11.956l92.015-92.015
			L479.214,193.6c4.229-2.751,8.244-5.97,11.956-9.682c28.682-28.681,28.682-75.181,0-103.859
			c-28.682-28.681-75.182-28.681-103.859,0c-3.712,3.712-6.931,7.727-9.682,11.956L285.614,0L193.6,92.014
			c-2.751-4.229-5.97-8.244-9.682-11.956c-28.681-28.681-75.181-28.681-103.859,0c-28.678,28.682-28.681,75.178,0,103.859
			c3.712,3.712,7.727,6.931,11.956,9.682L0,285.614l92.014,92.015C94.765,373.399,97.984,369.385,101.696,365.673z"/>
	</g>
</g>
<g>
</g>
<g>
</g>
<g>
</g>
<g>
</g>
<g>
</g>
<g>
</g>
<g>
</g>
<g>
</g>
<g>
</g>
<g>
</g>
<g>
</g>
<g>
</g>
<g>
</g>
<g>
</g>
<g>
</g>
</svg>
