<?xml version="1.0" encoding="iso-8859-1"?>
<!-- Generator: Adobe Illustrator 16.0.0, SVG Export Plug-In . SVG Version: 6.00 Build 0)  -->
<!DOCTYPE svg PUBLIC "-//W3C//DTD SVG 1.1//EN" "http://www.w3.org/Graphics/SVG/1.1/DTD/svg11.dtd">
<svg version="1.1" id="Capa_1" xmlns="http://www.w3.org/2000/svg" xmlns:xlink="http://www.w3.org/1999/xlink" x="0px" y="0px"
	 width="93.23px" height="93.229px" viewBox="0 0 93.23 93.229" style="enable-background:new 0 0 93.23 93.229;"
	 xml:space="preserve">
<g>
	<path d="M75.173,44.321c-4.568,0-9.057,1.863-12.313,5.11V32.298c0-1.104-0.896-2-2-2H43.51c3.604-3.283,5.669-7.969,5.669-12.856
		C49.179,7.824,41.355,0,31.738,0S14.295,7.824,14.295,17.442c0,4.887,2.067,9.573,5.67,12.856H2.615c-1.104,0-2,0.896-2,2v58.931
		c0,1.104,0.896,2,2,2h15.612c0.007-0.001,0.013,0,0.02,0c1.104,0,2-0.896,2-2c0-0.564-0.233-1.074-0.609-1.438
		c-2.154-2.72-3.291-5.998-3.291-9.494c0-8.486,6.904-15.392,15.39-15.392s15.392,6.903,15.392,15.392
		c0,3.572-1.187,6.916-3.43,9.668c-0.488,0.6-0.587,1.424-0.256,2.123c0.332,0.697,1.035,1.142,1.807,1.142h15.611
		c1.104,0,2-0.896,2-2V74.096c3.257,3.248,7.745,5.109,12.312,5.109c9.616,0.001,17.441-7.824,17.441-17.441
		C92.615,52.146,84.79,44.321,75.173,44.321z"/>
</g>
<g>
</g>
<g>
</g>
<g>
</g>
<g>
</g>
<g>
</g>
<g>
</g>
<g>
</g>
<g>
</g>
<g>
</g>
<g>
</g>
<g>
</g>
<g>
</g>
<g>
</g>
<g>
</g>
<g>
</g>
</svg>
