<svg id="Layer_1" data-name="Layer 1" xmlns="http://www.w3.org/2000/svg" viewBox="0 0 588.44 588.44"><defs><style>.cls-1{fill:#ff9700;}</style></defs><title>sun</title><circle class="cls-1" cx="294.33" cy="296.22" r="224.63"/><polygon class="cls-1" points="0 296.22 57.33 329.32 57.33 263.12 0 296.22"/><polygon class="cls-1" points="588.44 292.22 531.11 259.12 531.11 325.32 588.44 292.22"/><polygon class="cls-1" points="292.22 0 259.12 57.33 325.32 57.33 292.22 0"/><polygon class="cls-1" points="296.22 588.44 329.32 531.11 263.12 531.11 296.22 588.44"/><polygon class="cls-1" points="84.76 87.59 101.9 151.54 148.71 104.72 84.76 87.59"/><polygon class="cls-1" points="503.68 500.85 486.55 436.91 439.74 483.72 503.68 500.85"/><polygon class="cls-1" points="500.85 84.76 436.91 101.9 483.72 148.71 500.85 84.76"/><polygon class="cls-1" points="87.59 503.68 151.54 486.55 104.72 439.74 87.59 503.68"/></svg>